<svg xmlns="http://www.w3.org/2000/svg" version="1.1" xmlns:xlink="http://www.w3.org/1999/xlink" xmlns:svgjs="http://svgjs.dev/svgjs" width="1000" height="404" viewBox="0 0 1000 404"><g transform="matrix(1,0,0,1,-0.6060603398332773,0.0913644649919263)"><svg viewBox="0 0 396 160" data-background-color="#ffffff" preserveAspectRatio="xMidYMid meet" height="404" width="1000" xmlns="http://www.w3.org/2000/svg" xmlns:xlink="http://www.w3.org/1999/xlink"><g id="tight-bounds" transform="matrix(1,0,0,1,0.24000010542604855,-0.03617719926488405)"><svg viewBox="0 0 395.5199999999999 160.07235439852977" height="160.07235439852977" width="395.5199999999999"><g><svg viewBox="0 0 610.8021860950275 247.2" height="160.07235439852977" width="395.5199999999999"><g><svg viewBox="0 0 341.4364640883977 247.2" height="247.2" width="341.4364640883977"><g id="textblocktransform"><svg viewBox="0 0 341.4364640883977 247.2" height="247.2" width="341.4364640883977" id="textblock"><g><svg viewBox="0 0 341.4364640883977 247.2" height="247.2" width="341.4364640883977"><g transform="matrix(1,0,0,1,0,0)"><svg width="341.4364640883977" viewBox="2.700000047683716 -35.599998474121094 50 36.19999694824219" height="247.2" data-palette-color="#010c80"><path d="M27.7 0.6L27.7 0.6Q24.65 0.6 22.13-0.75 19.6-2.1 18.13-4.5 16.65-6.9 16.65-10.2L16.65-10.2 16.65-25.45Q16.65-26.25 16.25-26.9 15.85-27.55 15.2-27.95 14.55-28.35 13.75-28.35L13.75-28.35Q12.95-28.35 12.3-27.95 11.65-27.55 11.28-26.9 10.9-26.25 10.9-25.45L10.9-25.45 10.9 0 2.7 0 2.7-24.85Q2.7-28 4.13-30.4 5.55-32.8 8.08-34.2 10.6-35.6 13.75-35.6L13.75-35.6Q16.95-35.6 19.45-34.2 21.95-32.8 23.4-30.4 24.85-28 24.85-24.85L24.85-24.85 24.85-9.6Q24.85-8.75 25.25-8.1 25.65-7.45 26.28-7.08 26.9-6.7 27.65-6.7L27.65-6.7Q28.45-6.7 29.13-7.08 29.8-7.45 30.2-8.1 30.6-8.75 30.6-9.6L30.6-9.6 30.6-24.85Q30.6-28 32.05-30.4 33.5-32.8 36.02-34.2 38.55-35.6 41.65-35.6L41.65-35.6Q44.85-35.6 47.33-34.2 49.8-32.8 51.25-30.4 52.7-28 52.7-24.85L52.7-24.85 52.7 0 44.5 0 44.5-25.5Q44.5-26.3 44.13-26.93 43.75-27.55 43.1-27.95 42.45-28.35 41.65-28.35L41.65-28.35Q40.9-28.35 40.23-27.95 39.55-27.55 39.15-26.93 38.75-26.3 38.75-25.5L38.75-25.5 38.75-10.2Q38.75-6.9 37.25-4.5 35.75-2.1 33.25-0.75 30.75 0.6 27.7 0.6Z" opacity="1" transform="matrix(1,0,0,1,0,0)" fill="#010c80" class="wordmark-text-0" data-fill-palette-color="primary" id="text-0"></path></svg></g></svg></g></svg></g></svg></g><g transform="matrix(1,0,0,1,399.7944512883977,18.096132596685095)"><svg viewBox="0 0 211.0077348066298 211.0077348066298" height="211.0077348066298" width="211.0077348066298"><g data-palette-color="#00ffef"><rect width="57.675447513812145" height="211.0077348066298" fill="#00ffef" stroke="transparent" data-fill-palette-color="accent" x="0" fill-opacity="1"></rect><rect width="57.675447513812145" height="211.0077348066298" fill="#00ffef" stroke="transparent" data-fill-palette-color="accent" x="70.33591160220993" fill-opacity="0.75"></rect><rect width="57.675447513812145" height="211.0077348066298" fill="#00ffef" stroke="transparent" data-fill-palette-color="accent" x="140.67182320441987" fill-opacity="0.5"></rect></g></svg></g></svg></g><defs></defs></svg><rect width="395.5199999999999" height="160.07235439852977" fill="none" stroke="none" visibility="hidden"></rect></g></svg></g></svg>