<svg xmlns="http://www.w3.org/2000/svg" version="1.1" xmlns:xlink="http://www.w3.org/1999/xlink" xmlns:svgjs="http://svgjs.dev/svgjs" width="1000" height="176" viewBox="0 0 1000 176"><g transform="matrix(1,0,0,1,-0.606060521214772,0.6271874525109382)"><svg viewBox="0 0 396 70" data-background-color="#ffffff" preserveAspectRatio="xMidYMid meet" height="176" width="1000" xmlns="http://www.w3.org/2000/svg" xmlns:xlink="http://www.w3.org/1999/xlink"><g id="tight-bounds" transform="matrix(1,0,0,1,0.24000003359890343,-0.24944955497593924)"><svg viewBox="0 0 395.52 70.49889910995188" height="70.49889910995188" width="395.52"><g><svg viewBox="0 0 499.83034392896894 89.09154780729402" height="70.49889910995188" width="395.52"><g transform="matrix(1,0,0,1,0,12.312941846015313)"><svg viewBox="0 0 395.52 64.4656641152634" height="64.4656641152634" width="395.52"><g id="textblocktransform"><svg viewBox="0 0 395.52 64.4656641152634" height="64.4656641152634" width="395.52" id="textblock"><g><svg viewBox="0 0 395.52 64.4656641152634" height="64.4656641152634" width="395.52"><g transform="matrix(1,0,0,1,0,0)"><svg width="395.52" viewBox="2.700000047683716 -35.599998474121094 222.08999633789062 36.19999694824219" height="64.4656641152634" data-palette-color="#010c80"><path d="M27.7 0.6L27.7 0.6Q24.65 0.6 22.13-0.75 19.6-2.1 18.13-4.5 16.65-6.9 16.65-10.2L16.65-10.2 16.65-25.45Q16.65-26.25 16.25-26.9 15.85-27.55 15.2-27.95 14.55-28.35 13.75-28.35L13.75-28.35Q12.95-28.35 12.3-27.95 11.65-27.55 11.28-26.9 10.9-26.25 10.9-25.45L10.9-25.45 10.9 0 2.7 0 2.7-24.85Q2.7-28 4.13-30.4 5.55-32.8 8.08-34.2 10.6-35.6 13.75-35.6L13.75-35.6Q16.95-35.6 19.45-34.2 21.95-32.8 23.4-30.4 24.85-28 24.85-24.85L24.85-24.85 24.85-9.6Q24.85-8.75 25.25-8.1 25.65-7.45 26.28-7.08 26.9-6.7 27.65-6.7L27.65-6.7Q28.45-6.7 29.13-7.08 29.8-7.45 30.2-8.1 30.6-8.75 30.6-9.6L30.6-9.6 30.6-24.85Q30.6-28 32.05-30.4 33.5-32.8 36.02-34.2 38.55-35.6 41.65-35.6L41.65-35.6Q44.85-35.6 47.33-34.2 49.8-32.8 51.25-30.4 52.7-28 52.7-24.85L52.7-24.85 52.7 0 44.5 0 44.5-25.5Q44.5-26.3 44.13-26.93 43.75-27.55 43.1-27.95 42.45-28.35 41.65-28.35L41.65-28.35Q40.9-28.35 40.23-27.95 39.55-27.55 39.15-26.93 38.75-26.3 38.75-25.5L38.75-25.5 38.75-10.2Q38.75-6.9 37.25-4.5 35.75-2.1 33.25-0.75 30.75 0.6 27.7 0.6ZM71.55-9.7L57.4-9.7 57.4-15.95 71.55-15.95 71.55-9.7ZM92.95 0L76.8 0 76.8-7 91.75-7Q92.75-7 93.55-7.5 94.35-8 94.82-8.8 95.3-9.6 95.3-10.55L95.3-10.55Q95.3-11.55 94.82-12.35 94.35-13.15 93.55-13.65 92.75-14.15 91.75-14.15L91.75-14.15 86.35-14.15Q83.3-14.15 80.8-15.35 78.3-16.55 76.82-18.88 75.35-21.2 75.35-24.45L75.35-24.45Q75.35-27.65 76.75-30 78.15-32.35 80.55-33.68 82.95-35 85.85-35L85.85-35 101.3-35 101.3-28 86.8-28Q85.9-28 85.15-27.55 84.4-27.1 84-26.35 83.6-25.6 83.6-24.7L83.6-24.7Q83.6-23.8 84-23.08 84.4-22.35 85.15-21.9 85.9-21.45 86.8-21.45L86.8-21.45 92.45-21.45Q95.8-21.45 98.27-20.18 100.75-18.9 102.12-16.63 103.5-14.35 103.5-11.3L103.5-11.3Q103.5-7.7 102.07-5.18 100.65-2.65 98.25-1.33 95.85 0 92.95 0L92.95 0ZM122.89 0.6L122.89 0.6Q118.54 0.6 115.17-1.15 111.79-2.9 109.89-6.15 107.99-9.4 107.99-13.9L107.99-13.9 107.99-35 116.29-35 116.29-13.45Q116.29-11.5 117.09-9.93 117.89-8.35 119.39-7.43 120.89-6.5 122.89-6.5L122.89-6.5Q124.94-6.5 126.39-7.43 127.84-8.35 128.67-9.93 129.49-11.5 129.49-13.45L129.49-13.45 129.49-35 137.79-35 137.79-13.9Q137.79-9.4 135.87-6.15 133.94-2.9 130.59-1.15 127.24 0.6 122.89 0.6ZM168.34 0.6L168.34 0.6Q165.29 0.6 162.77-0.75 160.24-2.1 158.77-4.5 157.29-6.9 157.29-10.2L157.29-10.2 157.29-25.45Q157.29-26.25 156.89-26.9 156.49-27.55 155.84-27.95 155.19-28.35 154.39-28.35L154.39-28.35Q153.59-28.35 152.94-27.95 152.29-27.55 151.92-26.9 151.54-26.25 151.54-25.45L151.54-25.45 151.54 0 143.34 0 143.34-24.85Q143.34-28 144.77-30.4 146.19-32.8 148.72-34.2 151.24-35.6 154.39-35.6L154.39-35.6Q157.59-35.6 160.09-34.2 162.59-32.8 164.04-30.4 165.49-28 165.49-24.85L165.49-24.85 165.49-9.6Q165.49-8.75 165.89-8.1 166.29-7.45 166.92-7.08 167.54-6.7 168.29-6.7L168.29-6.7Q169.09-6.7 169.77-7.08 170.44-7.45 170.84-8.1 171.24-8.75 171.24-9.6L171.24-9.6 171.24-24.85Q171.24-28 172.69-30.4 174.14-32.8 176.67-34.2 179.19-35.6 182.29-35.6L182.29-35.6Q185.49-35.6 187.97-34.2 190.44-32.8 191.89-30.4 193.34-28 193.34-24.85L193.34-24.85 193.34 0 185.14 0 185.14-25.5Q185.14-26.3 184.77-26.93 184.39-27.55 183.74-27.95 183.09-28.35 182.29-28.35L182.29-28.35Q181.54-28.35 180.87-27.95 180.19-27.55 179.79-26.93 179.39-26.3 179.39-25.5L179.39-25.5 179.39-10.2Q179.39-6.9 177.89-4.5 176.39-2.1 173.89-0.75 171.39 0.6 168.34 0.6ZM224.79 0L205.54 0Q201.99 0 199.79-2.15 197.59-4.3 197.59-7.65L197.59-7.65Q197.59-9.25 198.24-10.73 198.89-12.2 200.39-13.5L200.39-13.5 215.29-26.8Q215.39-26.9 215.46-27.03 215.54-27.15 215.54-27.3L215.54-27.3Q215.54-27.5 215.41-27.68 215.29-27.85 215.11-27.95 214.94-28.05 214.74-28.05L214.74-28.05 198.44-28.05 198.44-35 216.59-35Q218.99-35 220.76-34.02 222.54-33.05 223.54-31.33 224.54-29.6 224.54-27.35L224.54-27.35Q224.54-25.75 223.91-24.28 223.29-22.8 221.94-21.6L221.94-21.6 206.84-8.25Q206.79-8.2 206.71-8.1 206.64-8 206.61-7.93 206.59-7.85 206.59-7.7L206.59-7.7Q206.59-7.5 206.69-7.33 206.79-7.15 206.99-7.05 207.19-6.95 207.44-6.95L207.44-6.95 224.79-6.95 224.79 0Z" opacity="1" transform="matrix(1,0,0,1,0,0)" fill="#010c80" class="wordmark-text-0" data-fill-palette-color="primary" id="text-0"></path></svg></g></svg></g></svg></g></svg></g><g transform="matrix(1,0,0,1,410.7387961216749,0)"><svg viewBox="0 0 89.09154780729402 89.09154780729402" height="89.09154780729402" width="89.09154780729402"><g data-palette-color="#00ffef"><rect width="24.351689733993698" height="89.09154780729402" fill="#00ffef" stroke="transparent" data-fill-palette-color="accent" x="0" fill-opacity="1"></rect><rect width="24.351689733993698" height="89.09154780729402" fill="#00ffef" stroke="transparent" data-fill-palette-color="accent" x="29.69718260243134" fill-opacity="0.75"></rect><rect width="24.351689733993698" height="89.09154780729402" fill="#00ffef" stroke="transparent" data-fill-palette-color="accent" x="59.39436520486268" fill-opacity="0.5"></rect></g></svg></g></svg></g><defs></defs></svg><rect width="395.52" height="70.49889910995188" fill="none" stroke="none" visibility="hidden"></rect></g></svg></g></svg>